<svg width="2793" height="2396" viewBox="0 0 2793 2396" fill="none" xmlns="http://www.w3.org/2000/svg">
<g opacity="0.7">
<g opacity="0.7" filter="url(#filter0_f_59_292)">
<path d="M702.647 1275.24C678.54 1363.29 579.813 1380.7 534.412 1307.28C450.814 1211.07 384.583 1043.33 462.375 974.246C540.167 905.162 712.503 935.208 796.101 1031.41C879.7 1127.62 813.159 1203.9 702.647 1275.24Z" fill="#92C4E7"/>
</g>
<g opacity="0.62" filter="url(#filter1_f_59_292)">
<path d="M2138.82 1821.71C2127.36 1874.76 2068.42 1881.9 2038.48 1835.33C1984.71 1773.44 1938.92 1668.38 1983.42 1628.86C2027.93 1589.34 2132.91 1613.88 2186.68 1675.76C2240.45 1737.64 2202.98 1781.97 2138.82 1821.71Z" fill="#92C4E7"/>
</g>
<g opacity="0.7" filter="url(#filter2_f_59_292)">
<path d="M1852.68 1260.09C1834.92 1310.05 1778.17 1324.39 1755.87 1285.86C1712.99 1236.51 1683.28 1146.68 1730.58 1104.69C1777.87 1062.69 1874.1 1071.14 1916.98 1120.49C1959.86 1169.83 1918.61 1215.28 1852.68 1260.09Z" fill="#92C4E7"/>
</g>
<g opacity="0.7" filter="url(#filter3_f_59_292)">
<path d="M1274.08 1802.99C1256.32 1852.95 1199.57 1867.3 1177.27 1828.76C1134.39 1779.41 1104.68 1689.59 1151.97 1647.59C1199.27 1605.59 1295.5 1614.04 1338.38 1663.39C1381.26 1712.74 1340.01 1758.19 1274.08 1802.99Z" fill="#92C4E7"/>
</g>
<g opacity="0.7" filter="url(#filter4_f_59_292)">
<path fill-rule="evenodd" clip-rule="evenodd" d="M619.863 1379.73C660.245 1360.88 700.85 1417.32 746.793 1426.67C798.34 1437.16 879.525 1402.69 905.014 1437.76C936.858 1481.57 830.959 1537.19 859.795 1582.15C888.002 1626.13 998.92 1602.6 1036.36 1642.55C1066.06 1674.24 1056.63 1727.26 1023.88 1757.23C986.03 1791.87 897.426 1772.03 858.066 1805.72C822.521 1836.15 864.556 1893.33 829.196 1923.88C797.533 1951.23 737.987 1947.12 689.858 1951.04C643.405 1954.81 584.543 1970.8 551.002 1946.5C506.669 1914.39 549.621 1843.12 501.273 1814.42C460.462 1790.19 392.737 1843.87 346.893 1825.33C310.353 1810.55 298.782 1767 310.255 1737.17C323.965 1701.53 394.459 1691.76 411.655 1656.97C423.371 1633.26 363.15 1603.1 385.8 1584.33C413.005 1561.78 470.547 1592.7 506.418 1578.43C531.235 1568.57 531.382 1541.37 542.41 1522.06C569.535 1474.54 561.214 1407.1 619.863 1379.73Z" fill="#0C71B2"/>
</g>
<g opacity="0.64" filter="url(#filter5_f_59_292)">
<path fill-rule="evenodd" clip-rule="evenodd" d="M1085.14 569.627C1099.03 567.881 1108.5 584.519 1119.84 592.771C1129.31 599.662 1136.66 609.112 1146.99 614.624C1160.6 621.891 1178.58 619.996 1190.12 630.28C1201.54 640.471 1210.99 655.816 1210.39 671.161C1209.77 686.988 1196.98 699.759 1186.91 711.936C1178.43 722.182 1165.48 727.27 1156.13 736.725C1147.99 744.97 1144.69 757.479 1135.25 764.197C1125.74 770.974 1113.95 774.974 1102.29 775.064C1090.86 775.152 1081.23 763.127 1069.91 764.7C1052.24 767.158 1039.13 788.213 1021.39 786.312C1006.54 784.721 997.193 768.39 988.737 756.005C980.396 743.788 969.894 729.534 972.696 714.987C975.927 698.21 999.289 691.631 1004.28 675.296C1008.01 663.114 996.284 651.026 996.143 638.283C995.97 622.752 990.371 601.064 1003.36 592.659C1017.77 583.338 1037.14 605.74 1053.64 601.093C1068.01 597.044 1070.32 571.489 1085.14 569.627Z" fill="#0E1328"/>
</g>
<g opacity="0.61" filter="url(#filter6_f_59_292)">
<path fill-rule="evenodd" clip-rule="evenodd" d="M603.984 1680.48C615.852 1679.16 629.841 1677.21 639.354 1683.81C649.679 1690.97 648.461 1705.75 655.093 1715.9C659.934 1723.32 666.856 1729.16 673.164 1735.59C681.09 1743.68 693.221 1748.94 697.413 1759.08C701.541 1769.07 701.533 1781.41 695.979 1790.81C690.245 1800.52 674.703 1801.81 667.105 1810.39C659.798 1818.64 661.668 1832.05 653.104 1839.23C644.682 1846.29 632.124 1847.35 620.852 1849.16C609.633 1850.96 598.289 1851.06 586.973 1849.85C575.273 1848.61 562.378 1848.45 553.032 1841.92C543.626 1835.35 541.821 1823.19 535.642 1813.98C529.956 1805.5 522.338 1798.33 517.76 1789.31C512.827 1779.6 504.969 1769.26 507.648 1758.84C510.428 1748.02 525.855 1743.92 531.909 1734.28C537.57 1725.26 534.289 1712.62 541.648 1704.69C548.927 1696.84 561.42 1695.32 571.794 1691.29C582.404 1687.17 592.534 1681.74 603.984 1680.48Z" fill="white"/>
</g>
<g opacity="0.7" filter="url(#filter7_f_59_292)">
<path fill-rule="evenodd" clip-rule="evenodd" d="M1265.92 785.392C1289.71 757.937 1336.08 803.056 1372.31 801.525C1412.96 799.807 1461.81 747.911 1490.8 775.887C1527.03 810.839 1466.49 888.806 1500.87 925.555C1534.5 961.502 1608.25 913.336 1647.41 943.276C1678.46 967.025 1687.38 1020.34 1672.47 1056.77C1655.22 1098.88 1584.81 1100.09 1566.18 1141.63C1549.36 1179.14 1596.99 1224.65 1580.34 1262.24C1565.44 1295.9 1520.86 1305.6 1486.98 1320.43C1454.29 1334.74 1416.19 1363.68 1384.54 1347.95C1342.7 1327.15 1352.75 1248.54 1309.01 1231.96C1272.08 1217.96 1238.76 1285.29 1199.86 1277.94C1168.86 1272.07 1147.46 1232.71 1146.94 1201.3C1146.3 1163.77 1194.72 1138.16 1196.88 1100.65C1198.35 1075.09 1145.53 1059.82 1156.43 1036.52C1169.52 1008.52 1220.62 1025.13 1242.49 1003.13C1257.62 987.91 1249.63 961.643 1251.91 940.477C1257.51 888.415 1231.37 825.265 1265.92 785.392Z" fill="#0C71B2"/>
</g>
<g opacity="0.7" filter="url(#filter8_f_59_292)">
<path fill-rule="evenodd" clip-rule="evenodd" d="M1786.55 1646.8C1799.47 1633.83 1822.47 1653.23 1841.26 1651.72C1862.34 1650.02 1888.76 1625.41 1903.15 1637.43C1921.13 1652.45 1888.08 1689.14 1905.06 1705.02C1921.68 1720.55 1960.91 1697.06 1980.51 1709.75C1996.06 1719.81 1999.5 1743.76 1990.98 1760.6C1981.13 1780.07 1944.66 1782.2 1934.1 1801.45C1924.57 1818.82 1948.22 1838.37 1938.77 1855.77C1930.31 1871.36 1907.03 1876.76 1889.17 1884.24C1871.93 1891.46 1851.58 1905.43 1835.54 1899.02C1814.35 1890.54 1821.28 1854.69 1799.01 1848.17C1780.21 1842.65 1761.48 1873.91 1741.51 1871.46C1725.59 1869.5 1715.39 1852.15 1715.8 1837.93C1716.31 1820.94 1741.93 1808.24 1743.87 1791.2C1745.2 1779.58 1718.19 1773.86 1724.35 1763.05C1731.74 1750.07 1757.82 1756.44 1769.63 1745.99C1777.79 1738.75 1774.24 1727.03 1775.88 1717.39C1779.93 1693.67 1767.79 1665.65 1786.55 1646.8Z" fill="#0C71B2"/>
</g>
<g opacity="0.7" filter="url(#filter9_f_59_292)">
<path fill-rule="evenodd" clip-rule="evenodd" d="M1071.87 1481.63C1087.36 1465.96 1115.07 1489.53 1137.65 1487.77C1162.98 1485.78 1194.67 1456.05 1212.01 1470.66C1233.67 1488.92 1194.06 1533.27 1214.52 1552.56C1234.55 1571.43 1281.63 1543.1 1305.24 1558.54C1323.97 1570.78 1328.18 1599.81 1317.99 1620.19C1306.21 1643.75 1262.37 1646.21 1249.75 1669.49C1238.34 1690.51 1266.83 1714.27 1255.54 1735.33C1245.42 1754.18 1217.45 1760.65 1196 1769.66C1175.3 1778.35 1150.88 1795.21 1131.58 1787.38C1106.07 1777.04 1114.3 1733.63 1087.5 1725.65C1064.87 1718.91 1042.46 1756.72 1018.44 1753.68C999.303 1751.25 986.98 1730.2 987.438 1712.97C987.985 1692.38 1018.74 1677.09 1021.03 1656.44C1022.58 1642.38 990.103 1635.35 997.469 1622.28C1006.32 1606.57 1037.69 1614.38 1051.84 1601.75C1061.64 1593.01 1057.32 1578.79 1059.27 1567.12C1064.06 1538.4 1049.38 1504.4 1071.87 1481.63Z" fill="#0C71B2"/>
</g>
<g opacity="0.7" filter="url(#filter10_f_59_292)">
<path fill-rule="evenodd" clip-rule="evenodd" d="M605.618 601.407C621.105 585.729 648.82 609.308 671.399 607.541C696.732 605.557 728.417 575.823 745.757 590.437C767.42 608.695 727.805 653.04 748.274 672.331C768.295 691.202 815.381 662.877 838.989 678.309C857.716 690.551 861.93 719.586 851.738 739.963C839.956 763.519 796.121 765.984 783.495 789.262C772.092 810.283 800.584 834.044 789.285 855.102C779.169 873.958 751.194 880.427 729.749 889.433C709.051 898.125 684.628 914.985 665.329 907.157C639.822 896.811 648.044 853.406 621.245 845.422C598.623 838.683 576.207 876.495 552.193 873.452C533.052 871.027 520.729 849.969 521.187 832.742C521.734 812.157 552.494 796.86 554.777 776.216C556.333 762.15 523.852 755.122 531.218 742.049C540.064 726.347 571.437 734.155 585.592 721.521C595.385 712.78 591.072 698.567 593.019 686.891C597.807 658.171 583.127 624.177 605.618 601.407Z" fill="#0C71B2"/>
</g>
<g opacity="0.56" filter="url(#filter11_f_59_292)">
<path fill-rule="evenodd" clip-rule="evenodd" d="M2085.97 1012.8C2097.91 1003.42 2116.23 1014.44 2132.4 1012.13C2150.53 1009.53 2174.83 991.606 2186.3 998.426C2200.63 1006.95 2169.83 1033.22 2183.25 1042.37C2196.37 1051.32 2231.54 1033.22 2247.42 1040.11C2260.02 1045.56 2261.3 1060.94 2252.84 1072.53C2243.07 1085.92 2211.74 1089.9 2201.39 1103.2C2192.03 1115.2 2210.89 1126.28 2201.61 1138.3C2193.3 1149.06 2173.02 1154.23 2157.24 1160.38C2142 1166.31 2123.63 1176.86 2110.37 1173.81C2092.84 1169.78 2101.25 1145.92 2082.66 1143.24C2066.97 1140.97 2048.79 1162.69 2031.89 1162.5C2018.41 1162.35 2010.89 1151.76 2012.24 1142.45C2013.84 1131.34 2036.63 1121.24 2039.47 1109.99C2041.41 1102.32 2018.72 1100.5 2024.73 1093.02C2031.96 1084.03 2053.81 1086.34 2064.62 1078.68C2072.11 1073.38 2069.88 1065.99 2071.95 1059.59C2077.06 1043.83 2068.63 1026.42 2085.97 1012.8Z" fill="#0C71B2"/>
</g>
<g opacity="0.52" filter="url(#filter12_f_59_292)">
<path fill-rule="evenodd" clip-rule="evenodd" d="M1975.04 1659.67C1997.7 1690 1975.61 1733.06 1973.73 1769.98C1972.17 1800.81 1962.31 1829.88 1964.81 1860.97C1968.12 1901.97 1996.67 1941.68 1990.78 1981.59C1984.94 2021.14 1965.53 2062.53 1932.41 2080.38C1898.23 2098.8 1853.88 2084.92 1814.48 2076.62C1781.33 2069.64 1752.92 2045.72 1720.25 2035.71C1691.75 2026.99 1660.92 2034.98 1633.88 2021.33C1606.61 2007.56 1582.08 1984.99 1565.96 1957.8C1550.17 1931.17 1562.32 1893.51 1543.54 1868.99C1514.22 1830.71 1451.99 1826.47 1431.76 1782.56C1414.81 1745.78 1436.42 1703.4 1450.94 1668.05C1465.27 1633.18 1480.93 1590.7 1515.39 1578.99C1555.12 1565.49 1600.89 1611.91 1642.1 1603.09C1672.84 1596.51 1682.27 1553.89 1708.91 1537.56C1741.37 1517.65 1779.38 1477.31 1814.83 1497.17C1854.14 1519.2 1833.43 1592.66 1865.76 1625.44C1893.92 1654.01 1950.88 1627.33 1975.04 1659.67Z" fill="#0E1328"/>
</g>
<g opacity="0.44" filter="url(#filter13_f_59_292)">
<path fill-rule="evenodd" clip-rule="evenodd" d="M2169.96 306.31C2205.09 302.059 2229.03 342.566 2257.71 362.656C2281.66 379.431 2300.24 402.438 2326.35 415.856C2360.77 433.549 2406.23 428.936 2435.39 453.973C2464.28 478.783 2488.16 516.141 2486.64 553.499C2485.07 592.03 2452.75 623.122 2427.27 652.768C2405.84 677.712 2373.1 690.101 2349.47 713.117C2328.87 733.191 2320.54 763.644 2296.68 780C2272.61 796.499 2242.82 806.238 2213.33 806.456C2184.45 806.671 2160.08 777.395 2131.47 781.225C2086.79 787.208 2053.66 838.468 2008.81 833.841C1971.24 829.967 1947.62 790.208 1926.24 760.057C1905.15 730.315 1878.6 695.612 1885.68 660.196C1893.85 619.352 1952.92 603.334 1965.54 563.567C1974.96 533.909 1945.32 504.48 1944.96 473.456C1944.53 435.646 1930.37 382.844 1963.22 362.382C1999.65 339.69 2048.61 394.228 2090.32 382.914C2126.67 373.056 2132.51 310.843 2169.96 306.31Z" fill="#0E1328"/>
</g>
</g>
<defs>
<filter id="filter0_f_59_292" x="121.774" y="630.605" width="1017.95" height="1028.62" filterUnits="userSpaceOnUse" color-interpolation-filters="sRGB">
<feFlood flood-opacity="0" result="BackgroundImageFix"/>
<feBlend mode="normal" in="SourceGraphic" in2="BackgroundImageFix" result="shape"/>
<feGaussianBlur stdDeviation="153" result="effect1_foregroundBlur_59_292"/>
</filter>
<filter id="filter1_f_59_292" x="1659.47" y="1303.7" width="858.963" height="868.578" filterUnits="userSpaceOnUse" color-interpolation-filters="sRGB">
<feFlood flood-opacity="0" result="BackgroundImageFix"/>
<feBlend mode="normal" in="SourceGraphic" in2="BackgroundImageFix" result="shape"/>
<feGaussianBlur stdDeviation="153" result="effect1_foregroundBlur_59_292"/>
</filter>
<filter id="filter2_f_59_292" x="1400.46" y="771.732" width="840.062" height="842.107" filterUnits="userSpaceOnUse" color-interpolation-filters="sRGB">
<feFlood flood-opacity="0" result="BackgroundImageFix"/>
<feBlend mode="normal" in="SourceGraphic" in2="BackgroundImageFix" result="shape"/>
<feGaussianBlur stdDeviation="153" result="effect1_foregroundBlur_59_292"/>
</filter>
<filter id="filter3_f_59_292" x="821.86" y="1314.63" width="840.062" height="842.107" filterUnits="userSpaceOnUse" color-interpolation-filters="sRGB">
<feFlood flood-opacity="0" result="BackgroundImageFix"/>
<feBlend mode="normal" in="SourceGraphic" in2="BackgroundImageFix" result="shape"/>
<feGaussianBlur stdDeviation="153" result="effect1_foregroundBlur_59_292"/>
</filter>
<filter id="filter4_f_59_292" x="0" y="1069.9" width="1360.25" height="1195.79" filterUnits="userSpaceOnUse" color-interpolation-filters="sRGB">
<feFlood flood-opacity="0" result="BackgroundImageFix"/>
<feBlend mode="normal" in="SourceGraphic" in2="BackgroundImageFix" result="shape"/>
<feGaussianBlur stdDeviation="153" result="effect1_foregroundBlur_59_292"/>
</filter>
<filter id="filter5_f_59_292" x="666.233" y="263.5" width="850.181" height="828.933" filterUnits="userSpaceOnUse" color-interpolation-filters="sRGB">
<feFlood flood-opacity="0" result="BackgroundImageFix"/>
<feBlend mode="normal" in="SourceGraphic" in2="BackgroundImageFix" result="shape"/>
<feGaussianBlur stdDeviation="153" result="effect1_foregroundBlur_59_292"/>
</filter>
<filter id="filter6_f_59_292" x="201.105" y="1373.15" width="805.241" height="783.502" filterUnits="userSpaceOnUse" color-interpolation-filters="sRGB">
<feFlood flood-opacity="0" result="BackgroundImageFix"/>
<feBlend mode="normal" in="SourceGraphic" in2="BackgroundImageFix" result="shape"/>
<feGaussianBlur stdDeviation="153" result="effect1_foregroundBlur_59_292"/>
</filter>
<filter id="filter7_f_59_292" x="840.93" y="461.625" width="1144.59" height="1196.88" filterUnits="userSpaceOnUse" color-interpolation-filters="sRGB">
<feFlood flood-opacity="0" result="BackgroundImageFix"/>
<feBlend mode="normal" in="SourceGraphic" in2="BackgroundImageFix" result="shape"/>
<feGaussianBlur stdDeviation="153" result="effect1_foregroundBlur_59_292"/>
</filter>
<filter id="filter8_f_59_292" x="1409.79" y="1328.14" width="891.734" height="878.523" filterUnits="userSpaceOnUse" color-interpolation-filters="sRGB">
<feFlood flood-opacity="0" result="BackgroundImageFix"/>
<feBlend mode="normal" in="SourceGraphic" in2="BackgroundImageFix" result="shape"/>
<feGaussianBlur stdDeviation="153" result="effect1_foregroundBlur_59_292"/>
</filter>
<filter id="filter9_f_59_292" x="681.425" y="1160.64" width="947.967" height="934.764" filterUnits="userSpaceOnUse" color-interpolation-filters="sRGB">
<feFlood flood-opacity="0" result="BackgroundImageFix"/>
<feBlend mode="normal" in="SourceGraphic" in2="BackgroundImageFix" result="shape"/>
<feGaussianBlur stdDeviation="153" result="effect1_foregroundBlur_59_292"/>
</filter>
<filter id="filter10_f_59_292" x="215.174" y="280.412" width="947.967" height="934.764" filterUnits="userSpaceOnUse" color-interpolation-filters="sRGB">
<feFlood flood-opacity="0" result="BackgroundImageFix"/>
<feBlend mode="normal" in="SourceGraphic" in2="BackgroundImageFix" result="shape"/>
<feGaussianBlur stdDeviation="153" result="effect1_foregroundBlur_59_292"/>
</filter>
<filter id="filter11_f_59_292" x="1706.08" y="690.888" width="858.142" height="789.465" filterUnits="userSpaceOnUse" color-interpolation-filters="sRGB">
<feFlood flood-opacity="0" result="BackgroundImageFix"/>
<feBlend mode="normal" in="SourceGraphic" in2="BackgroundImageFix" result="shape"/>
<feGaussianBlur stdDeviation="153" result="effect1_foregroundBlur_59_292"/>
</filter>
<filter id="filter12_f_59_292" x="1119.55" y="1185.81" width="1178.02" height="1209.67" filterUnits="userSpaceOnUse" color-interpolation-filters="sRGB">
<feFlood flood-opacity="0" result="BackgroundImageFix"/>
<feBlend mode="normal" in="SourceGraphic" in2="BackgroundImageFix" result="shape"/>
<feGaussianBlur stdDeviation="153" result="effect1_foregroundBlur_59_292"/>
</filter>
<filter id="filter13_f_59_292" x="1578.51" y="0" width="1214.19" height="1140.14" filterUnits="userSpaceOnUse" color-interpolation-filters="sRGB">
<feFlood flood-opacity="0" result="BackgroundImageFix"/>
<feBlend mode="normal" in="SourceGraphic" in2="BackgroundImageFix" result="shape"/>
<feGaussianBlur stdDeviation="153" result="effect1_foregroundBlur_59_292"/>
</filter>
</defs>
</svg>
