<svg width="998" height="1524" viewBox="0 0 998 1524" fill="none" xmlns="http://www.w3.org/2000/svg">
<g opacity="0.7" filter="url(#filter0_f_56_84)">
<path d="M408.21 735.296C378.911 810.915 291.702 834.932 259.376 778.207C196.129 706.208 154.762 572.994 228.767 507.984C302.771 442.974 449.229 451.34 512.477 523.34C575.725 595.339 510.782 665.252 408.21 735.296Z" fill="#92C4E7"/>
</g>
<g opacity="0.7" filter="url(#filter1_f_56_84)">
<path fill-rule="evenodd" clip-rule="evenodd" d="M659.854 874.184C680.388 871.664 694.382 895.671 711.146 907.577C725.144 917.519 736.003 931.154 751.264 939.106C771.386 949.592 797.958 946.858 815.002 961.696C831.891 976.4 845.851 998.54 844.96 1020.68C844.04 1043.52 825.151 1061.94 810.26 1079.51C797.73 1094.29 778.591 1101.64 764.782 1115.28C752.738 1127.17 747.869 1145.22 733.924 1154.92C719.857 1164.69 702.44 1170.47 685.203 1170.6C668.321 1170.72 654.077 1153.37 637.354 1155.64C611.236 1159.19 591.871 1189.57 565.653 1186.83C543.694 1184.53 529.886 1160.97 517.39 1143.1C505.063 1125.47 489.543 1104.9 493.684 1083.91C498.459 1059.71 532.985 1050.22 540.364 1026.65C545.867 1009.07 528.544 991.629 528.335 973.243C528.08 950.835 519.805 919.542 539.007 907.415C560.302 893.966 588.918 926.288 613.302 919.583C634.548 913.741 637.961 876.87 659.854 874.184Z" fill="#0E1328"/>
</g>
<g opacity="0.7" filter="url(#filter2_f_56_84)">
<path fill-rule="evenodd" clip-rule="evenodd" d="M309.879 1032.23C330.064 1021.23 350.359 1054.19 373.323 1059.65C399.088 1065.78 439.667 1045.65 452.407 1066.13C468.324 1091.72 415.392 1124.21 429.806 1150.47C443.904 1176.16 499.345 1162.42 518.059 1185.75C532.904 1204.26 528.189 1235.23 511.822 1252.74C492.902 1272.97 448.615 1261.39 428.941 1281.07C411.175 1298.84 432.185 1332.24 414.511 1350.08C398.685 1366.06 368.922 1363.66 344.865 1365.94C321.647 1368.15 292.225 1377.49 275.46 1363.3C253.301 1344.54 274.77 1302.91 250.604 1286.15C230.205 1271.99 196.354 1303.35 173.44 1292.52C155.176 1283.89 149.392 1258.44 155.127 1241.02C161.98 1220.2 197.215 1214.5 205.81 1194.17C211.666 1180.33 181.565 1162.71 192.887 1151.75C206.485 1138.58 235.246 1156.63 253.176 1148.3C265.58 1142.54 265.654 1126.65 271.166 1115.37C284.724 1087.62 280.565 1048.22 309.879 1032.23Z" fill="#0C71B2"/>
</g>
<g opacity="0.52" filter="url(#filter3_f_56_84)">
<path fill-rule="evenodd" clip-rule="evenodd" d="M518.816 340.14C532.7 338.216 542.161 356.547 553.496 365.639C562.961 373.23 570.303 383.641 580.622 389.714C594.227 397.72 612.194 395.633 623.717 406.963C635.136 418.19 644.575 435.096 643.973 452.002C643.351 469.439 630.579 483.509 620.511 496.925C612.039 508.212 599.099 513.819 589.762 524.235C581.618 533.319 578.326 547.1 568.897 554.502C559.386 561.968 547.61 566.375 535.955 566.474C524.541 566.571 514.91 553.322 503.603 555.056C485.944 557.763 472.85 580.96 455.123 578.867C440.276 577.113 430.94 559.121 422.491 545.477C414.156 532.017 403.662 516.313 406.462 500.286C409.691 481.803 433.035 474.554 438.025 456.558C441.745 443.137 430.033 429.819 429.891 415.779C429.719 398.669 424.124 374.775 437.107 365.515C451.505 355.246 470.854 379.926 487.341 374.806C501.705 370.345 504.013 342.192 518.816 340.14Z" fill="#0E1328"/>
</g>
<g opacity="0.61" filter="url(#filter4_f_56_84)">
<path fill-rule="evenodd" clip-rule="evenodd" d="M533.795 797.805C547.367 796.013 563.367 793.354 574.246 802.351C586.054 812.117 584.661 832.284 592.245 846.143C597.782 856.261 605.698 864.225 612.913 873.006C621.977 884.04 635.85 891.215 640.644 905.057C645.366 918.689 645.356 935.518 639.005 948.345C632.447 961.588 614.672 963.348 605.983 975.054C597.626 986.313 599.765 1004.61 589.97 1014.4C580.339 1024.04 565.977 1025.49 553.086 1027.96C540.255 1030.42 527.281 1030.55 514.34 1028.91C500.959 1027.2 486.212 1027 475.524 1018.08C464.766 1009.11 462.703 992.529 455.636 979.954C449.133 968.383 440.421 958.609 435.185 946.304C429.544 933.049 420.556 918.942 423.621 904.722C426.8 889.967 444.443 884.369 451.366 871.215C457.84 858.913 454.088 841.663 462.505 830.839C470.829 820.133 485.117 818.05 496.981 812.553C509.115 806.93 520.7 799.534 533.795 797.805Z" fill="white"/>
</g>
<g opacity="0.7" filter="url(#filter5_f_56_84)">
<path fill-rule="evenodd" clip-rule="evenodd" d="M577.684 167.092C591.468 153.288 616.137 174.049 636.234 172.493C658.782 170.747 686.984 144.567 702.418 157.434C721.7 173.509 686.44 212.552 704.658 229.538C722.479 246.153 764.389 221.214 785.402 234.801C802.071 245.579 805.822 271.143 796.75 289.085C786.263 309.824 747.246 311.995 736.008 332.49C725.859 350.998 751.218 371.919 741.162 390.459C732.157 407.061 707.258 412.757 688.17 420.686C669.747 428.339 648.009 443.183 630.831 436.291C608.128 427.182 615.446 388.966 591.593 381.937C571.458 376.003 551.505 409.295 530.131 406.616C513.095 404.48 502.126 385.94 502.533 370.772C503.02 352.648 530.399 339.18 532.431 321.004C533.816 308.619 504.906 302.431 511.461 290.921C519.336 277.096 547.259 283.971 559.859 272.847C568.576 265.152 564.737 252.637 566.469 242.357C570.732 217.07 557.665 187.14 577.684 167.092Z" fill="#0C71B2"/>
</g>
<defs>
<filter id="filter0_f_56_84" x="36.2498" y="310.899" width="654.208" height="651.598" filterUnits="userSpaceOnUse" color-interpolation-filters="sRGB">
<feFlood flood-opacity="0" result="BackgroundImageFix"/>
<feBlend mode="normal" in="SourceGraphic" in2="BackgroundImageFix" result="shape"/>
<feGaussianBlur stdDeviation="76.5" result="effect1_foregroundBlur_56_84"/>
</filter>
<filter id="filter1_f_56_84" x="340" y="721" width="658" height="619" filterUnits="userSpaceOnUse" color-interpolation-filters="sRGB">
<feFlood flood-opacity="0" result="BackgroundImageFix"/>
<feBlend mode="normal" in="SourceGraphic" in2="BackgroundImageFix" result="shape"/>
<feGaussianBlur stdDeviation="76.5" result="effect1_foregroundBlur_56_84"/>
</filter>
<filter id="filter2_f_56_84" x="0" y="877" width="680" height="647" filterUnits="userSpaceOnUse" color-interpolation-filters="sRGB">
<feFlood flood-opacity="0" result="BackgroundImageFix"/>
<feBlend mode="normal" in="SourceGraphic" in2="BackgroundImageFix" result="shape"/>
<feGaussianBlur stdDeviation="76.5" result="effect1_foregroundBlur_56_84"/>
</filter>
<filter id="filter3_f_56_84" x="253" y="187" width="544" height="545" filterUnits="userSpaceOnUse" color-interpolation-filters="sRGB">
<feFlood flood-opacity="0" result="BackgroundImageFix"/>
<feBlend mode="normal" in="SourceGraphic" in2="BackgroundImageFix" result="shape"/>
<feGaussianBlur stdDeviation="76.5" result="effect1_foregroundBlur_56_84"/>
</filter>
<filter id="filter4_f_56_84" x="270" y="643" width="527" height="540" filterUnits="userSpaceOnUse" color-interpolation-filters="sRGB">
<feFlood flood-opacity="0" result="BackgroundImageFix"/>
<feBlend mode="normal" in="SourceGraphic" in2="BackgroundImageFix" result="shape"/>
<feGaussianBlur stdDeviation="76.5" result="effect1_foregroundBlur_56_84"/>
</filter>
<filter id="filter5_f_56_84" x="349.522" y="0.889832" width="605.037" height="590.179" filterUnits="userSpaceOnUse" color-interpolation-filters="sRGB">
<feFlood flood-opacity="0" result="BackgroundImageFix"/>
<feBlend mode="normal" in="SourceGraphic" in2="BackgroundImageFix" result="shape"/>
<feGaussianBlur stdDeviation="76.5" result="effect1_foregroundBlur_56_84"/>
</filter>
</defs>
</svg>
